<svg width="93" height="93" viewBox="0 0 93 93" fill="none" xmlns="http://www.w3.org/2000/svg">
<path d="M46.5 77.5C54.7217 77.5 62.6067 74.2339 68.4203 68.4203C74.2339 62.6067 77.5 54.7217 77.5 46.5C77.5 38.2783 74.2339 30.3933 68.4203 24.5797C62.6067 18.7661 54.7217 15.5 46.5 15.5C38.2783 15.5 30.3933 18.7661 24.5797 24.5797C18.7661 30.3933 15.5 38.2783 15.5 46.5C15.5 54.7217 18.7661 62.6067 24.5797 68.4203C30.3933 74.2339 38.2783 77.5 46.5 77.5ZM46.5 7.75C51.5887 7.75 56.6276 8.7523 61.329 10.6997C66.0304 12.647 70.3021 15.5013 73.9004 19.0996C77.4987 22.6979 80.353 26.9696 82.3003 31.671C84.2477 36.3724 85.25 41.4113 85.25 46.5C85.25 56.7771 81.1674 66.6334 73.9004 73.9004C66.6334 81.1674 56.7771 85.25 46.5 85.25C25.0713 85.25 7.75 67.8125 7.75 46.5C7.75 36.2229 11.8326 26.3666 19.0996 19.0996C26.3666 11.8326 36.2229 7.75 46.5 7.75ZM48.4375 27.125V47.4688L65.875 57.815L62.9688 62.5812L42.625 50.375V27.125H48.4375Z" fill="#825FCC"/>
</svg>
