<svg width="34" height="61" viewBox="0 0 34 61" fill="none" xmlns="http://www.w3.org/2000/svg">
<path d="M32.252 59.6945C33.0124 58.8924 33.3926 57.9428 33.3926 56.8455C33.3926 55.7483 33.0124 54.7997 32.252 53.9997L9.97174 30.4987L32.328 6.91745C33.0377 6.16884 33.3926 5.23307 33.3926 4.11016C33.3926 2.98724 33.0124 2.02474 32.252 1.22266C31.4915 0.420573 30.5912 0.0195312 29.551 0.0195312C28.5107 0.0195312 27.6114 0.420573 26.853 1.22266L1.30299 28.2529C0.998825 28.5737 0.782867 28.9213 0.655117 29.2956C0.527367 29.6699 0.464504 30.0709 0.466534 30.4987C0.466534 30.9265 0.530407 31.3275 0.658157 31.7018C0.785908 32.0761 1.00085 32.4237 1.30299 32.7445L26.929 59.7747C27.6388 60.5233 28.5137 60.8977 29.554 60.8977C30.5942 60.8977 31.4936 60.4966 32.252 59.6945Z" fill="url(#paint0_linear_150_2164)"/>
    <defs>
        <linearGradient id="paint0_linear_150_2164" x1="0" y1="110" x2="471" y2="110" gradientUnits="userSpaceOnUse">
            <stop stop-color="#FCCB90"/>
            <stop offset="1" stop-color="#D57EEB"/>
        </linearGradient>
    </defs>
</svg>
