<svg width="34" height="59" viewBox="0 0 34 59" fill="none" xmlns="http://www.w3.org/2000/svg">
<path d="M1.74805 57.1805C0.98763 56.4201 0.607422 55.5197 0.607422 54.4795C0.607422 53.4392 0.98763 52.5399 1.74805 51.7815L24.0283 29.5013L1.672 7.14505C0.962283 6.43533 0.607422 5.54818 0.607422 4.48359C0.607422 3.41901 0.98763 2.50651 1.74805 1.74609C2.50846 0.985677 3.4088 0.605469 4.44905 0.605469C5.4893 0.605469 6.38862 0.985677 7.14701 1.74609L32.697 27.3721C33.0012 27.6763 33.2171 28.0058 33.3449 28.3607C33.4726 28.7155 33.5355 29.0957 33.5335 29.5013C33.5335 29.9069 33.4696 30.2871 33.3418 30.6419C33.2141 30.9968 32.9991 31.3263 32.697 31.6305L7.07096 57.2565C6.36124 57.9662 5.48625 58.3211 4.446 58.3211C3.40575 58.3211 2.50644 57.9409 1.74805 57.1805Z" fill="url(#paint0_linear_150_2164)"/>
    <defs>
        <linearGradient id="paint0_linear_150_2164" x1="0" y1="110" x2="471" y2="110" gradientUnits="userSpaceOnUse">
            <stop stop-color="#FCCB90"/>
            <stop offset="1" stop-color="#D57EEB"/>
        </linearGradient>
    </defs>
</svg>
