<svg width="83" height="83" viewBox="0 0 83 83" fill="none" xmlns="http://www.w3.org/2000/svg">
<path d="M35.9593 76.0827C34.2647 70.558 31.709 66.4374 28.2905 63.7243C23.1635 59.6556 15.0174 62.1854 12.0086 57.987C8.99987 53.7885 14.1165 46.0695 15.9114 41.5149C17.708 36.9603 9.02927 35.3504 10.0426 34.057C10.7169 33.1942 15.1038 30.7076 23.1998 26.5939C25.4996 13.4765 33.995 6.91602 48.6894 6.91602C70.7294 6.91602 79.1262 25.6014 79.1262 37.4877C79.1262 49.3705 68.9587 62.1733 54.4752 64.9347C53.1801 66.8195 55.0476 70.5372 60.0777 76.0827" stroke="#825FCC" stroke-width="4.667" stroke-linecap="round" stroke-linejoin="round"/>
<path d="M33.719 25.0727C32.5881 29.4544 32.9235 32.5323 34.7271 34.3047C36.5289 36.0754 39.5999 37.2356 43.9401 37.7803C42.9544 43.433 44.1562 46.0838 47.5419 45.7345C50.9276 45.3869 52.9629 43.9794 53.6459 41.5153C58.9371 43.0024 61.8058 41.7574 62.2502 37.7803C62.9159 31.8147 59.6997 27.0578 58.3803 27.0578C57.0627 27.0578 53.6459 26.897 53.6459 25.0727C53.6459 23.2484 49.655 22.2196 46.0531 22.2196C42.4513 22.2196 44.6179 19.7901 39.6725 20.7498C36.375 21.3896 34.3899 22.83 33.719 25.0727Z" stroke="#825FCC" stroke-width="4" stroke-linejoin="round"/>
<path d="M52.7396 44.0938C50.981 45.1849 48.5688 46.9987 47.5521 48.4167C45.012 51.9615 42.9525 54.1195 42.5029 56.3847" stroke="#825FCC" stroke-width="4" stroke-linecap="round"/>
</svg>
