<svg width="18" height="18" viewBox="0 0 18 18" fill="none" xmlns="http://www.w3.org/2000/svg">
<path d="M17.0966 0.241691C16.9314 0.134458 16.7467 0.0608277 16.553 0.0250059C16.3593 -0.0108158 16.1604 -0.00812693 15.9678 0.032919C15.7751 0.073965 15.5925 0.152564 15.4302 0.264225C15.2679 0.375887 15.1293 0.518423 15.0221 0.683691L6.61711 13.6392L2.51811 9.84919C2.37349 9.71547 2.20395 9.61155 2.01917 9.54335C1.83439 9.47515 1.63799 9.44402 1.44117 9.45173C1.04369 9.46729 0.668669 9.64012 0.398613 9.93219C0.128556 10.2243 -0.0144156 10.6116 0.00114994 11.0091C0.0167155 11.4066 0.189543 11.7816 0.481613 12.0517L5.86361 17.0277C5.86361 17.0277 6.01811 17.1607 6.08961 17.2072C6.25485 17.3145 6.43962 17.3882 6.63336 17.4241C6.8271 17.4599 7.02601 17.4573 7.21871 17.4162C7.41142 17.3752 7.59414 17.2965 7.75645 17.1848C7.91875 17.0731 8.05745 16.9305 8.16461 16.7652L17.5386 2.31619C17.6458 2.15097 17.7195 1.96624 17.7553 1.77255C17.7911 1.57887 17.7884 1.38002 17.7474 1.18737C17.7063 0.994726 17.6277 0.812053 17.5161 0.649791C17.4044 0.487528 17.2619 0.348854 17.0966 0.241691Z" fill="#825FCC"/>
</svg>
