<svg width="75" height="75" viewBox="0 0 75 75" fill="none" xmlns="http://www.w3.org/2000/svg">
<path d="M5.09928 35.6063V62.4451H16.4618L17.0355 62.5126C27.5843 64.9726 34.5743 66.7463 38.058 67.8451C42.6855 69.3038 44.4105 69.6601 47.5493 69.8701C49.8968 70.0313 52.563 69.1276 53.778 67.8901C54.4493 67.2076 54.9518 65.8051 55.1505 63.6301C55.1917 63.174 55.3547 62.7373 55.6226 62.3659C55.8905 61.9945 56.2533 61.7019 56.673 61.5188C57.6068 61.1138 58.383 60.4538 59.0318 59.4938C59.6318 58.6163 60.0218 56.9813 60.093 54.6151C60.1056 54.1801 60.2289 53.7554 60.4513 53.3814C60.6738 53.0074 60.988 52.6963 61.3643 52.4776C63.5468 51.2138 64.6268 49.7888 64.8518 48.1163C65.0993 46.2676 64.4993 44.1863 62.928 41.8163C62.5594 41.2605 62.4221 40.5828 62.5453 39.9273C62.6686 39.2718 63.0427 38.6903 63.588 38.3063C65.0918 37.2488 65.9168 35.7788 66.123 33.6938C66.453 30.3713 64.3343 27.9151 59.538 27.4238C55.2663 27.0013 50.9533 27.361 46.8105 28.4851C46.3406 28.6079 45.8453 28.5939 45.3831 28.4448C44.9208 28.2957 44.5107 28.0177 44.2011 27.6435C43.8914 27.2692 43.6951 26.8143 43.6352 26.3323C43.5754 25.8503 43.6544 25.3612 43.863 24.9226C45.738 20.9551 46.7805 17.6813 47.0243 15.1463C47.343 11.7826 46.5668 9.34507 44.7518 7.33507C43.3755 5.81257 41.1743 4.94257 40.3493 5.12257C39.2618 5.35507 38.553 5.98507 37.6305 8.19007C37.0868 9.49507 36.8243 10.6051 36.3743 13.1963C35.943 15.6563 35.7068 16.7663 35.2155 18.2213C33.7343 22.6313 30.1005 27.2026 25.2218 30.3563C21.8025 32.564 18.0968 34.2926 14.208 35.4938C13.9651 35.5687 13.7123 35.6066 13.458 35.6063H5.09928ZM4.94178 67.5563C3.73053 67.5901 2.64303 67.3201 1.73178 66.6826C0.569276 65.8688 0.0217761 64.5863 0.0105261 63.1088L0.0217761 35.6476C-0.105724 34.1851 0.325526 32.8426 1.34553 31.8451C2.30178 30.9076 3.55053 30.4651 4.87053 30.4951H13.0643C16.3787 29.439 19.5387 27.9485 22.4618 26.0626C26.3918 23.5201 29.2868 19.8751 30.393 16.5901C30.7718 15.4576 30.9743 14.5201 31.3568 12.3151C31.8743 9.35632 32.1968 7.98007 32.9393 6.21007C34.4768 2.52757 36.4943 0.727569 39.2768 0.123819C42.0143 -0.468681 46.0005 1.11007 48.5205 3.90007C51.3143 6.99007 52.548 10.8563 52.0905 15.6338C51.8955 17.6888 51.3255 19.9876 50.388 22.5488C53.5897 22.0822 56.8366 22.0117 60.0555 22.3388C67.5818 23.1076 71.808 28.0088 71.193 34.2038C70.923 36.8738 69.9555 39.1426 68.3093 40.9238C69.693 43.5901 70.2443 46.2263 69.8993 48.7988C69.5018 51.7613 67.8518 54.2288 65.1068 56.1451C64.893 58.7438 64.2968 60.8176 63.2393 62.3701C62.406 63.6243 61.3189 64.6898 60.048 65.4976C59.643 68.0626 58.7918 70.0688 57.4005 71.4788C55.0943 73.8263 50.973 75.2251 47.208 74.9701C43.6343 74.7301 41.5193 74.2951 36.5318 72.7201C33.243 71.6813 26.433 69.9563 16.1693 67.5563H4.94178ZM11.3205 34.4401C11.3195 34.1046 11.3848 33.7722 11.5125 33.4619C11.6402 33.1517 11.8279 32.8697 12.0647 32.6321C12.3016 32.3945 12.5831 32.206 12.8929 32.0774C13.2028 31.9488 13.535 31.8826 13.8705 31.8826C14.2054 31.8836 14.5368 31.9505 14.8458 32.0795C15.1548 32.2086 15.4354 32.3973 15.6715 32.6347C15.9075 32.8722 16.0946 33.1539 16.2218 33.4636C16.349 33.7734 16.414 34.1052 16.413 34.4401V63.2326C16.4135 63.5674 16.348 63.8991 16.2204 64.2087C16.0927 64.5183 15.9052 64.7997 15.6688 65.0368C15.4324 65.2739 15.1515 65.4622 14.8423 65.5908C14.5331 65.7194 14.2016 65.7858 13.8668 65.7863C13.5319 65.7858 13.2004 65.7194 12.8912 65.5908C12.582 65.4622 12.3012 65.2739 12.0648 65.0368C11.8283 64.7997 11.6409 64.5183 11.5132 64.2087C11.3855 63.8991 11.32 63.5674 11.3205 63.2326V34.4401Z" fill="#825FCC"/>
</svg>
