<svg width="143" height="45" viewBox="0 0 143 45" fill="none" xmlns="http://www.w3.org/2000/svg">
<g clip-path="url(#clip0_150_2033)">
<path d="M1.16064 14.6445V5.19359C1.16064 3.21194 2.82908 1.53516 4.8767 1.53516H20.5751H36.7285C38.5487 1.53516 39.9896 2.98329 39.9896 4.73629V14.7208" stroke="#E8EDE6" stroke-width="3" stroke-miterlimit="10"/>
<path d="M20.5752 1.53516V14.6445" stroke="#E8EDE6" stroke-width="3" stroke-miterlimit="10"/>
<path d="M62.4374 8.3185H86.3263C88.0706 8.3185 89.5115 7.02281 89.5115 5.49846C89.5115 3.28816 87.5397 1.53516 85.037 1.53516H58.2663C54.4744 1.53516 51.4409 4.43142 51.4409 8.01363C51.4409 11.6721 54.5503 14.6445 58.418 14.6445H90.194" stroke="#E8EDE6" stroke-width="3" stroke-miterlimit="10"/>
<path d="M62.4374 37.9669H86.3263C88.0706 37.9669 89.5115 36.6712 89.5115 35.1469C89.5115 32.9366 87.5397 31.1836 85.037 31.1836H58.2663C54.4744 31.1836 51.4409 34.0799 51.4409 37.6621C51.4409 41.3205 54.5503 44.293 58.418 44.293H90.194" stroke="#E8EDE6" stroke-width="3" stroke-miterlimit="10"/>
<path d="M141.384 14.6445V5.87955C141.384 3.51681 139.261 1.53516 136.607 1.53516H108.167C104.603 1.53516 101.721 4.12655 101.721 7.40389V8.08985C101.721 11.7483 104.982 14.7208 109.002 14.7208H129.629" stroke="#E8EDE6" stroke-width="3" stroke-miterlimit="10"/>
<path d="M39.6102 31.1836V40.6345C39.6102 42.6924 37.866 44.293 35.6667 44.293H5.5591C3.28397 44.293 1.46387 42.54 1.46387 40.4059C1.46387 38.2718 3.28397 36.4426 5.5591 36.4426H27.8554" stroke="#E8EDE6" stroke-width="3" stroke-miterlimit="10" stroke-linecap="square"/>
<path d="M1.16064 22.7246H110.064C111.505 22.7246 112.794 23.4868 113.552 24.7825L121.591 43.7606C122.046 44.9039 123.639 44.8276 124.018 43.6844L130.009 25.1636C130.616 23.7154 132.057 22.8008 133.649 22.8008H141.916" stroke="#E8EDE6" stroke-width="3" stroke-miterlimit="10"/>
</g>
<defs>
<clipPath id="clip0_150_2033">
<rect width="143" height="45" fill="white"/>
</clipPath>
</defs>
</svg>
