<svg width="75" height="75" viewBox="0 0 75 75" fill="none" xmlns="http://www.w3.org/2000/svg">
<path d="M6.25 37.5C6.25 22.7687 6.25 15.4031 10.825 10.825C15.4062 6.25 22.7687 6.25 37.5 6.25C52.2313 6.25 59.5969 6.25 64.1719 10.825C68.75 15.4062 68.75 22.7687 68.75 37.5C68.75 52.2313 68.75 59.5969 64.1719 64.1719C59.6 68.75 52.2313 68.75 37.5 68.75C22.7687 68.75 15.4031 68.75 10.825 64.1719C6.25 59.6 6.25 52.2313 6.25 37.5Z" stroke="#825FCC" stroke-width="4.5"/>
<path d="M53.125 46.875H37.5M21.875 31.25L22.6063 31.8594C26.6125 35.1969 28.6156 36.8656 28.6156 39.0625C28.6156 41.2594 26.6156 42.9281 22.6063 46.2656L21.875 46.875" stroke="#825FCC" stroke-width="4.5" stroke-linecap="round"/>
</svg>
