<svg width="29" height="24" viewBox="0 0 29 24" fill="none" xmlns="http://www.w3.org/2000/svg">
<path fill-rule="evenodd" clip-rule="evenodd" d="M25.742 0.341202C26.0818 0.19819 26.4537 0.148866 26.819 0.198363C27.1843 0.247861 27.5297 0.394371 27.8192 0.622644C28.1087 0.850917 28.3317 1.15261 28.465 1.49632C28.5983 1.84002 28.6371 2.21318 28.5772 2.57695L25.4587 21.4928C25.1562 23.3175 23.1542 24.3638 21.4808 23.455C20.0811 22.6946 18.0021 21.5231 16.1321 20.3007C15.1971 19.6888 12.333 17.7295 12.685 16.3352C12.9875 15.1431 17.8 10.6633 20.55 7.99995C21.6293 6.95358 21.1371 6.34995 19.8625 7.31245C16.6958 9.7022 11.6152 13.3363 9.93497 14.3593C8.45272 15.2613 7.67997 15.4153 6.75597 15.2613C5.07022 14.9808 3.50685 14.5463 2.23085 14.017C0.506596 13.302 0.590471 10.9315 2.22947 10.2412L25.742 0.341202Z" fill="white"/>
</svg>
