<svg width="31" height="20" viewBox="0 0 31 20" fill="none" xmlns="http://www.w3.org/2000/svg">
<path fill-rule="evenodd" clip-rule="evenodd" d="M30.2092 1.75781C30.4386 1.03078 30.2092 0.502265 29.194 0.502265H25.8186C24.9672 0.502265 24.574 0.965039 24.3446 1.46004C24.3446 1.46004 22.6082 5.68816 20.1835 8.42936C19.3972 9.22213 19.0369 9.48639 18.6108 9.48639C18.3814 9.48639 18.0862 9.22213 18.0862 8.49574V1.72365C18.0862 0.865137 17.8245 0.46875 17.1033 0.46875H11.7949C11.2703 0.46875 10.9429 0.865137 10.9429 1.26152C10.9429 2.08717 12.1552 2.28568 12.2861 4.59762V9.62109C12.2861 10.711 12.0927 10.9102 11.6634 10.9102C10.5168 10.9102 7.7318 6.64916 6.06117 1.79391C5.73633 0.832265 5.40633 0.46875 4.55426 0.46875H1.14662C0.163711 0.46875 0 0.930879 0 1.42652C0 2.31855 1.14662 6.81029 5.34059 12.7554C8.1256 16.816 12.0901 18.9984 15.6615 18.9984C17.8245 18.9984 18.0862 18.5027 18.0862 17.6771V14.6053C18.0862 13.6146 18.2828 13.4496 18.9711 13.4496C19.4623 13.4496 20.3472 13.7132 22.3459 15.6623C24.6391 17.9742 25.0323 19.0312 26.3104 19.0312H29.6852C30.6681 19.0312 31.127 18.5356 30.8647 17.5778C30.5701 16.6201 29.4557 15.233 28.0139 13.5817C27.2276 12.6575 26.0481 11.6333 25.6878 11.1377C25.1967 10.477 25.3275 10.2128 25.6878 9.61852C25.6549 9.61852 29.7838 3.7391 30.2092 1.75523" fill="white"/>
</svg>
