<svg width="1920" height="1345" viewBox="0 0 1920 1345" fill="none" xmlns="http://www.w3.org/2000/svg">
<path d="M1921.73 50.2725C1921.73 50.2725 3011.14 196.638 2281.24 50.2725C1551.34 -96.093 1406.96 129.408 903.374 72.8752C399.787 16.3428 -231 17.7474 -231 17.7474L3.30762 1318H1921.73V50.2725Z" fill="url(#paint0_linear_150_2084)"/>
<path d="M-6.74127 120.347C-6.74127 120.347 -1064.28 270.983 -331.329 136.053C401.627 1.12402 941.937 172.462 1447.63 120.347C1953.32 68.2317 2155 90.3633 2155 90.3633L1919.71 1289.02C1919.71 1289.02 1581.92 1259.14 1368.92 1289.02C555.757 1403.12 597.464 1273.51 174.507 1273.51C60.2341 1273.51 -6.74127 1289.02 -6.74127 1289.02V120.347Z" fill="url(#paint1_linear_150_2084)"/>
<path d="M-117.291 57.3603C-117.291 57.3603 -1207.49 186.513 -477.061 57.3604C253.368 -71.7922 397.854 127.189 901.805 77.3049C1405.76 27.4208 2037 28.6603 2037 28.6603L1802.52 1176H-117.291V57.3603Z" fill="url(#paint2_linear_150_2084)"/>
<path d="M1964.31 140.019C1964.31 140.019 3096.98 289.333 2311.95 155.588C1526.93 21.8428 948.237 191.677 406.62 140.019C-134.998 88.3613 -351 110.299 -351 110.299L-98.9973 1298.43C-98.9973 1298.43 262.788 1268.81 490.919 1298.43C1361.85 1411.53 1317.18 1283.06 1770.18 1283.06C1892.57 1283.06 1964.31 1298.43 1964.31 1298.43V140.019Z" fill="url(#paint3_linear_150_2084)"/>
<path d="M-83.9316 97.3172C-83.9316 97.3172 -1197.34 247.833 -425.665 113.011C346.008 -21.8106 914.859 149.391 1447.26 97.3172C1979.67 45.2435 2192 67.3575 2192 67.3575L1944.28 1265.06C1944.28 1265.06 1588.65 1235.2 1364.4 1265.06C508.279 1379.06 552.19 1249.56 106.89 1249.56C-13.4183 1249.56 -83.9316 1265.06 -83.9316 1265.06V97.3172Z" fill="url(#paint4_linear_150_2084)"/>
<defs>
<linearGradient id="paint0_linear_150_2084" x1="2243.47" y1="50.2784" x2="595.992" y2="1644.89" gradientUnits="userSpaceOnUse">
<stop offset="0.119792" stop-color="#500DE0" stop-opacity="0.64"/>
<stop offset="0.630208" stop-color="#D9C6FF"/>
<stop offset="1" stop-color="#D9D9D9" stop-opacity="0"/>
</linearGradient>
<linearGradient id="paint1_linear_150_2084" x1="-329.824" y1="120.351" x2="1187.61" y2="1720.24" gradientUnits="userSpaceOnUse">
<stop offset="0.586744" stop-color="#BD9EFF"/>
<stop offset="0.86784" stop-color="#7751CB"/>
</linearGradient>
<linearGradient id="paint2_linear_150_2084" x1="-439.26" y1="57.3655" x2="1008.95" y2="1647.06" gradientUnits="userSpaceOnUse">
<stop offset="0.286843" stop-color="#825ECC"/>
<stop offset="0.671783" stop-color="#FAB0B8"/>
</linearGradient>
<linearGradient id="paint3_linear_150_2084" x1="2310.34" y1="140.024" x2="816.827" y2="1841.49" gradientUnits="userSpaceOnUse">
<stop offset="0.718717" stop-color="#FAB0B8"/>
<stop offset="0.86784" stop-color="#8561CB"/>
</linearGradient>
<linearGradient id="paint4_linear_150_2084" x1="-424.08" y1="97.3216" x2="1085.91" y2="1774.79" gradientUnits="userSpaceOnUse">
<stop offset="0.181832" stop-color="#F7AFB9"/>
<stop offset="1" stop-color="#8460CB"/>
</linearGradient>
</defs>
</svg>
