<svg width="29" height="28" viewBox="0 0 29 28" fill="none" xmlns="http://www.w3.org/2000/svg">
<path d="M24.1621 4.00133C22.9015 2.72798 21.4 1.71837 19.7451 1.0314C18.0902 0.344429 16.3151 -0.00616016 14.5234 8.19082e-05C7.01586 8.19082e-05 0.89711 6.11883 0.89711 13.6263C0.89711 16.0326 1.52961 18.3701 2.71211 20.4326L0.787109 27.5001L8.00586 25.6026C9.99961 26.6888 12.2409 27.2663 14.5234 27.2663C22.0309 27.2663 28.1496 21.1476 28.1496 13.6401C28.1496 9.99633 26.7334 6.57258 24.1621 4.00133ZM14.5234 24.9563C12.4884 24.9563 10.4946 24.4063 8.74836 23.3751L8.33586 23.1276L4.04586 24.2551L5.18711 20.0751L4.91211 19.6488C3.78151 17.8434 3.18118 15.7565 3.17961 13.6263C3.17961 7.38383 8.26711 2.29633 14.5096 2.29633C17.5346 2.29633 20.3809 3.47883 22.5121 5.62383C23.5674 6.67428 24.4037 7.92374 24.9725 9.29979C25.5414 10.6758 25.8314 12.1511 25.8259 13.6401C25.8534 19.8826 20.7659 24.9563 14.5234 24.9563ZM20.7384 16.4863C20.3946 16.3213 18.7171 15.4963 18.4146 15.3726C18.0984 15.2626 17.8784 15.2076 17.6446 15.5376C17.4109 15.8813 16.7646 16.6513 16.5721 16.8713C16.3796 17.1051 16.1734 17.1326 15.8296 16.9538C15.4859 16.7888 14.3859 16.4176 13.0934 15.2626C12.0759 14.3551 11.4021 13.2413 11.1959 12.8976C11.0034 12.5538 11.1684 12.3751 11.3471 12.1963C11.4984 12.0451 11.6909 11.7976 11.8559 11.6051C12.0209 11.4126 12.0896 11.2613 12.1996 11.0413C12.3096 10.8076 12.2546 10.6151 12.1721 10.4501C12.0896 10.2851 11.4021 8.60758 11.1271 7.92008C10.8521 7.26008 10.5634 7.34258 10.3571 7.32883H9.69711C9.46336 7.32883 9.10586 7.41133 8.78961 7.75508C8.48711 8.09883 7.60711 8.92383 7.60711 10.6013C7.60711 12.2788 8.83086 13.9013 8.99586 14.1213C9.16086 14.3551 11.4021 17.7926 14.8121 19.2638C15.6234 19.6213 16.2559 19.8276 16.7509 19.9788C17.5621 20.2401 18.3046 20.1988 18.8959 20.1163C19.5559 20.0201 20.9171 19.2913 21.1921 18.4938C21.4809 17.6963 21.4809 17.0226 21.3846 16.8713C21.2884 16.7201 21.0821 16.6513 20.7384 16.4863Z" fill="white"/>
</svg>
