<svg width="75" height="75" viewBox="0 0 75 75" fill="none" xmlns="http://www.w3.org/2000/svg">
<path d="M69.125 54.3965L42.3958 27.6674C43.1662 24.1781 42.9544 20.5436 41.7841 17.1674C40.6138 13.7911 38.5307 10.8053 35.7661 8.54139C33.0014 6.27746 29.6635 4.82402 26.1228 4.34242C22.5821 3.86082 18.9772 4.36992 15.7083 5.81319L12.9166 7.04236L24.125 18.2507L18.25 24.1465L7.04165 12.9382L5.81248 15.709C4.36096 18.9777 3.8456 22.5852 4.32384 26.1295C4.80208 29.6739 6.25513 33.0158 8.52105 35.7828C10.787 38.5499 13.7768 40.6334 17.1572 41.8012C20.5376 42.9689 24.1759 43.175 27.6666 42.3965L54.3958 69.1257C54.7828 69.5131 55.2423 69.8204 55.7481 70.0301C56.254 70.2398 56.7962 70.3477 57.3437 70.3477C57.8913 70.3477 58.4335 70.2398 58.9393 70.0301C59.4451 69.8204 59.9047 69.5131 60.2916 69.1257L69.125 60.2924C69.5124 59.9054 69.8197 59.4459 70.0294 58.94C70.2391 58.4342 70.347 57.892 70.347 57.3444C70.347 56.7969 70.2391 56.2547 70.0294 55.7489C69.8197 55.243 69.5124 54.7835 69.125 54.3965ZM57.3333 66.1882L28.9166 37.7507L27.7291 38.084C25.4678 38.7452 23.0834 38.8696 20.7655 38.4475C18.4476 38.0254 16.2601 37.0683 14.377 35.6525C12.4939 34.2366 10.9671 32.4009 9.9179 30.2914C8.86872 28.1819 8.32615 25.8567 8.33331 23.5007C8.33074 22.4649 8.43547 21.4316 8.64581 20.4174L18.25 30.0215L30.0416 18.2299L20.4375 8.64652C22.9998 8.10864 25.6578 8.24416 28.1521 9.03986C30.6465 9.83557 32.8919 11.2643 34.6694 13.1866C36.447 15.1089 37.6958 17.4592 38.2941 20.0081C38.8924 22.5569 38.8198 25.2174 38.0833 27.7299L37.75 28.9174L66.1875 57.3549L57.3333 66.1882Z" fill="#825FCC"/>
<path d="M58.4342 58.3565C59.4919 57.2988 59.4919 55.584 58.4342 54.5263C57.3765 53.4687 55.6617 53.4687 54.604 54.5263C53.5464 55.584 53.5464 57.2988 54.604 58.3565C55.6617 59.4142 57.3765 59.4142 58.4342 58.3565Z" fill="#825FCC"/>
</svg>
